<svg width="16.000000" height="20.943115" viewBox="0 0 16 20.9431" fill="none" xmlns="http://www.w3.org/2000/svg" xmlns:xlink="http://www.w3.org/1999/xlink">
	<desc>
			Created with Pixso.
	</desc>
	<defs/>
	<g style="mix-blend-mode:normal">
		<path id="Path 157" d="M15 19L8 14L1 19L1 3C1 2.46 1.2 1.96 1.58 1.58C1.95 1.21 2.46 1 3 1L13 1C13.53 1 14.04 1.21 14.41 1.58C14.79 1.96 15 2.46 15 3L15 19Z" fill="#000000" fill-opacity="0" fill-rule="nonzero"/>
		<path id="Path 157" d="M8 14L1 19L1 3C1 2.46 1.2 1.96 1.58 1.58C1.95 1.21 2.46 1 3 1L13 1C13.53 1 14.04 1.21 14.41 1.58C14.79 1.96 15 2.46 15 3L15 19L8 14Z" stroke="#DDE1E6" stroke-opacity="1.000000" stroke-width="2.000000" stroke-linejoin="round"/>
	</g>
</svg>
