<svg width="24.000000" height="24.000000" viewBox="0 0 24 24" fill="none" xmlns="http://www.w3.org/2000/svg" xmlns:xlink="http://www.w3.org/1999/xlink">
	<desc>
			Created with Pixso.
	</desc>
	<defs/>
	<mask id="mask6_4708" mask-type="alpha" maskUnits="userSpaceOnUse" x="0.000000" y="0.000000" width="24.000000" height="24.000000">
		<g style="mix-blend-mode:normal">
			<rect id="Rectangle 26" width="24.000000" height="24.000000" fill="#FFFFFF" fill-opacity="1.000000"/>
			<rect id="Rectangle 26" width="24.000000" height="24.000000" stroke="#707070" stroke-opacity="0" stroke-width="1.000000"/>
		</g>
	</mask>
	<g mask="url(#mask6_4708)">
		<g opacity="0.200000" style="mix-blend-mode:normal">
			<path id="Path 51" d="M9.75 4.5L5.25 4.5C4.83 4.5 4.5 4.83 4.5 5.25L4.5 9.75C4.5 10.16 4.83 10.5 5.25 10.5L9.75 10.5C10.16 10.5 10.5 10.16 10.5 9.75L10.5 5.25C10.5 4.83 10.16 4.5 9.75 4.5Z" fill="#99F1FD" fill-opacity="1.000000" fill-rule="nonzero"/>
			<path id="Path 51" d="M5.25 4.5C4.83 4.5 4.5 4.83 4.5 5.25L4.5 9.75C4.5 10.16 4.83 10.5 5.25 10.5L9.75 10.5C10.16 10.5 10.5 10.16 10.5 9.75L10.5 5.25C10.5 4.83 10.16 4.5 9.75 4.5L5.25 4.5Z" stroke="#707070" stroke-opacity="0" stroke-width="1.000000"/>
		</g>
	</g>
	<g mask="url(#mask6_4708)">
		<g opacity="0.200000" style="mix-blend-mode:normal">
			<path id="Path 52" d="M18.75 4.5L14.25 4.5C13.83 4.5 13.5 4.83 13.5 5.25L13.5 9.75C13.5 10.16 13.83 10.5 14.25 10.5L18.75 10.5C19.16 10.5 19.5 10.16 19.5 9.75L19.5 5.25C19.5 4.83 19.16 4.5 18.75 4.5Z" fill="#99F1FD" fill-opacity="1.000000" fill-rule="nonzero"/>
			<path id="Path 52" d="M14.25 4.5C13.83 4.5 13.5 4.83 13.5 5.25L13.5 9.75C13.5 10.16 13.83 10.5 14.25 10.5L18.75 10.5C19.16 10.5 19.5 10.16 19.5 9.75L19.5 5.25C19.5 4.83 19.16 4.5 18.75 4.5L14.25 4.5Z" stroke="#707070" stroke-opacity="0" stroke-width="1.000000"/>
		</g>
	</g>
	<g mask="url(#mask6_4708)">
		<g opacity="0.200000" style="mix-blend-mode:normal">
			<path id="Path 53" d="M9.75 13.5L5.25 13.5C4.83 13.5 4.5 13.83 4.5 14.25L4.5 18.75C4.5 19.16 4.83 19.5 5.25 19.5L9.75 19.5C10.16 19.5 10.5 19.16 10.5 18.75L10.5 14.25C10.5 13.83 10.16 13.5 9.75 13.5Z" fill="#99F1FD" fill-opacity="1.000000" fill-rule="nonzero"/>
			<path id="Path 53" d="M5.25 13.5C4.83 13.5 4.5 13.83 4.5 14.25L4.5 18.75C4.5 19.16 4.83 19.5 5.25 19.5L9.75 19.5C10.16 19.5 10.5 19.16 10.5 18.75L10.5 14.25C10.5 13.83 10.16 13.5 9.75 13.5L5.25 13.5Z" stroke="#707070" stroke-opacity="0" stroke-width="1.000000"/>
		</g>
	</g>
	<g mask="url(#mask6_4708)">
		<g opacity="0.200000" style="mix-blend-mode:normal">
			<path id="Path 54" d="M18.75 13.5L14.25 13.5C13.83 13.5 13.5 13.83 13.5 14.25L13.5 18.75C13.5 19.16 13.83 19.5 14.25 19.5L18.75 19.5C19.16 19.5 19.5 19.16 19.5 18.75L19.5 14.25C19.5 13.83 19.16 13.5 18.75 13.5Z" fill="#99F1FD" fill-opacity="1.000000" fill-rule="nonzero"/>
			<path id="Path 54" d="M14.25 13.5C13.83 13.5 13.5 13.83 13.5 14.25L13.5 18.75C13.5 19.16 13.83 19.5 14.25 19.5L18.75 19.5C19.16 19.5 19.5 19.16 19.5 18.75L19.5 14.25C19.5 13.83 19.16 13.5 18.75 13.5L14.25 13.5Z" stroke="#707070" stroke-opacity="0" stroke-width="1.000000"/>
		</g>
	</g>
	<g mask="url(#mask6_4708)">
		<g style="mix-blend-mode:normal">
			<path id="Path 55" d="M18.75 13.5L14.25 13.5C13.83 13.5 13.5 13.83 13.5 14.25L13.5 18.75C13.5 19.16 13.83 19.5 14.25 19.5L18.75 19.5C19.16 19.5 19.5 19.16 19.5 18.75L19.5 14.25C19.5 13.83 19.16 13.5 18.75 13.5Z" fill="#000000" fill-opacity="0" fill-rule="nonzero"/>
			<path id="Path 55" d="M14.25 13.5C13.83 13.5 13.5 13.83 13.5 14.25L13.5 18.75C13.5 19.16 13.83 19.5 14.25 19.5L18.75 19.5C19.16 19.5 19.5 19.16 19.5 18.75L19.5 14.25C19.5 13.83 19.16 13.5 18.75 13.5L14.25 13.5Z" stroke="#04ABD7" stroke-opacity="1.000000" stroke-width="1.500000" stroke-linejoin="round"/>
		</g>
	</g>
	<g mask="url(#mask6_4708)">
		<g style="mix-blend-mode:normal">
			<path id="Path 56" d="M9.75 4.5L5.25 4.5C4.83 4.5 4.5 4.83 4.5 5.25L4.5 9.75C4.5 10.16 4.83 10.5 5.25 10.5L9.75 10.5C10.16 10.5 10.5 10.16 10.5 9.75L10.5 5.25C10.5 4.83 10.16 4.5 9.75 4.5Z" fill="#000000" fill-opacity="0" fill-rule="nonzero"/>
			<path id="Path 56" d="M5.25 4.5C4.83 4.5 4.5 4.83 4.5 5.25L4.5 9.75C4.5 10.16 4.83 10.5 5.25 10.5L9.75 10.5C10.16 10.5 10.5 10.16 10.5 9.75L10.5 5.25C10.5 4.83 10.16 4.5 9.75 4.5L5.25 4.5Z" stroke="#04ABD7" stroke-opacity="1.000000" stroke-width="1.500000" stroke-linejoin="round"/>
		</g>
	</g>
	<g mask="url(#mask6_4708)">
		<g style="mix-blend-mode:normal">
			<path id="Path 57" d="M18.75 4.5L14.25 4.5C13.83 4.5 13.5 4.83 13.5 5.25L13.5 9.75C13.5 10.16 13.83 10.5 14.25 10.5L18.75 10.5C19.16 10.5 19.5 10.16 19.5 9.75L19.5 5.25C19.5 4.83 19.16 4.5 18.75 4.5Z" fill="#000000" fill-opacity="0" fill-rule="nonzero"/>
			<path id="Path 57" d="M14.25 4.5C13.83 4.5 13.5 4.83 13.5 5.25L13.5 9.75C13.5 10.16 13.83 10.5 14.25 10.5L18.75 10.5C19.16 10.5 19.5 10.16 19.5 9.75L19.5 5.25C19.5 4.83 19.16 4.5 18.75 4.5L14.25 4.5Z" stroke="#04ABD7" stroke-opacity="1.000000" stroke-width="1.500000" stroke-linejoin="round"/>
		</g>
	</g>
	<g mask="url(#mask6_4708)">
		<g style="mix-blend-mode:normal">
			<path id="Path 58" d="M9.75 13.5L5.25 13.5C4.83 13.5 4.5 13.83 4.5 14.25L4.5 18.75C4.5 19.16 4.83 19.5 5.25 19.5L9.75 19.5C10.16 19.5 10.5 19.16 10.5 18.75L10.5 14.25C10.5 13.83 10.16 13.5 9.75 13.5Z" fill="#000000" fill-opacity="0" fill-rule="nonzero"/>
			<path id="Path 58" d="M5.25 13.5C4.83 13.5 4.5 13.83 4.5 14.25L4.5 18.75C4.5 19.16 4.83 19.5 5.25 19.5L9.75 19.5C10.16 19.5 10.5 19.16 10.5 18.75L10.5 14.25C10.5 13.83 10.16 13.5 9.75 13.5L5.25 13.5Z" stroke="#04ABD7" stroke-opacity="1.000000" stroke-width="1.500000" stroke-linejoin="round"/>
		</g>
	</g>
</svg>
