<svg xmlns="http://www.w3.org/2000/svg" width="512" height="512" viewBox="0 0 512 512" version="1.1"><path d="" stroke="none" fill="#080404" fill-rule="evenodd"/><path d="M 339 0.656 C 322.629 2.804, 301.766 9.079, 288.031 15.984 C 261.831 29.157, 236.408 53.888, 223.083 79.161 C 220.666 83.748, 218.568 87.652, 218.422 87.838 C 218.276 88.024, 216.765 87.146, 215.062 85.888 C 208.945 81.365, 201.036 83.811, 198.918 90.880 C 197.806 94.592, 198.032 95.401, 203.941 108.788 C 207.345 116.499, 210.945 123.545, 211.941 124.446 C 215.966 128.089, 219.925 127.563, 233.608 121.566 C 241.650 118.041, 247.535 114.797, 249.250 112.942 C 253.027 108.858, 252.966 104.113, 249.082 99.766 C 246.610 96.999, 245.480 96.500, 241.689 96.500 L 237.214 96.500 239.239 92.500 C 247.997 75.195, 264.374 56.250, 280.500 44.769 C 319.349 17.110, 373.942 12.821, 417.500 34.005 C 443.130 46.470, 465.470 68.805, 478.008 94.500 C 497.355 134.150, 495.581 184.400, 473.508 221.970 C 457.720 248.842, 430.870 270.725, 401.796 280.415 C 388.899 284.713, 380.108 286.136, 362.955 286.701 C 336.600 287.568, 317.737 283.540, 296 272.404 C 283.292 265.894, 275.752 260.312, 260.974 246.476 C 233.450 220.705, 204.002 207.486, 166.103 203.888 C 146.838 202.059, 123.567 204.951, 104.447 211.550 C 93.553 215.310, 83.905 219.754, 81.265 222.226 C 76.189 226.982, 77.928 235.567, 84.613 238.755 C 88.568 240.641, 87.572 240.893, 105.237 233.539 C 131.817 222.473, 164.922 221.188, 193.562 230.110 C 214.779 236.719, 230.580 246.349, 250 264.505 C 274.209 287.139, 296.799 298.921, 329 305.708 C 342.145 308.479, 375.870 308.201, 389.648 305.208 C 407.348 301.363, 427.681 293.348, 440.409 285.198 C 454.156 276.396, 472.425 259.441, 482.105 246.500 C 495.424 228.695, 504.023 209.387, 509.243 185.565 C 511.136 176.924, 511.448 172.458, 511.448 154 C 511.448 130.852, 510.118 121.401, 504.411 104 C 500.626 92.463, 489.721 71.440, 482.622 61.995 C 474.185 50.772, 455.601 32.924, 444.897 25.766 C 434.806 19.017, 418.709 11.157, 407.577 7.543 C 391.572 2.346, 381.815 0.858, 361.500 0.516 C 351.050 0.340, 340.925 0.403, 339 0.656 M 331.070 56.776 C 328.281 59.565, 327.959 60.774, 326.434 74.177 L 325.788 79.853 317.928 84.420 L 310.068 88.987 301.784 85.302 C 291.321 80.648, 287.021 80.468, 283.153 84.523 C 281.591 86.160, 275.743 95.473, 270.156 105.217 C 256.722 128.652, 256.730 129.284, 270.560 139.512 L 278 145.014 278 153.996 L 278 162.978 271.022 168.053 C 256.728 178.449, 256.707 179.327, 270.168 202.783 C 275.760 212.527, 281.448 221.716, 282.808 223.201 C 286.865 227.633, 289.693 227.617, 300.510 223.097 L 310.159 219.066 317.973 223.606 L 325.788 228.147 326.434 233.823 C 327.959 247.226, 328.281 248.435, 331.070 251.224 L 333.846 254 357.788 254 C 380.278 254, 381.886 253.878, 384.293 251.984 C 387.466 249.488, 388.688 245.715, 389.562 235.708 L 390.243 227.917 394.349 225.822 C 396.607 224.670, 400.107 222.634, 402.125 221.298 L 405.796 218.870 415.487 222.995 C 425.841 227.402, 428.919 227.587, 432.732 224.035 C 433.834 223.009, 439.520 213.882, 445.368 203.753 C 454.018 188.769, 455.994 184.606, 455.968 181.418 C 455.929 176.535, 455.279 175.715, 445.869 168.659 L 438.238 162.937 438.238 154 L 438.238 145.063 445.869 139.341 C 455.304 132.267, 455.931 131.469, 455.959 126.500 C 455.978 123.195, 454.015 119.113, 444.654 103 C 434.013 84.683, 433.085 83.415, 429.375 82.104 C 425.550 80.752, 425.117 80.840, 415.594 84.909 L 405.763 89.109 402.109 86.691 C 400.100 85.361, 396.607 83.330, 394.349 82.178 L 390.243 80.083 389.562 72.292 C 388.688 62.285, 387.466 58.512, 384.293 56.016 C 381.886 54.122, 380.278 54, 357.788 54 L 333.846 54 331.070 56.776 M 346.317 83.015 C 345.076 93.826, 344.302 94.876, 334.098 99.590 C 329.993 101.487, 324.233 104.891, 321.298 107.156 C 314.657 112.279, 311.188 112.432, 301.606 108.022 C 296.128 105.501, 294.533 105.122, 293.845 106.175 C 292.155 108.759, 284 122.912, 284 123.261 C 284 123.455, 286.936 125.770, 290.525 128.405 C 299.212 134.784, 300.216 136.874, 299.190 146.449 C 298.745 150.602, 298.745 157.398, 299.190 161.551 C 300.216 171.126, 299.212 173.216, 290.525 179.595 C 286.936 182.230, 284 184.553, 284 184.758 C 284 185.088, 293.889 202.125, 294.441 202.747 C 294.562 202.883, 298.362 201.390, 302.886 199.430 C 312.463 195.280, 314.428 195.408, 321 200.615 C 323.475 202.575, 329.150 205.948, 333.612 208.109 C 338.074 210.270, 342.525 212.922, 343.503 214.003 C 344.707 215.333, 345.617 218.885, 346.317 224.985 L 347.351 234 358.020 234 L 368.689 234 369.717 225.518 C 370.283 220.853, 371.480 215.916, 372.378 214.546 C 373.301 213.137, 377.344 210.516, 381.693 208.506 C 385.918 206.554, 391.720 203.186, 394.586 201.023 C 402.860 194.776, 402.555 194.757, 420.638 202.632 C 421.568 203.037, 432 186.597, 432 184.726 C 432 184.431, 428.889 181.883, 425.087 179.065 C 416.672 172.826, 415.757 170.739, 417.194 161.060 C 417.929 156.109, 417.924 151.858, 417.178 146.832 C 415.748 137.201, 416.880 134.689, 425.375 128.626 C 429.019 126.026, 432 123.638, 432 123.318 C 432 122.652, 421.979 105, 421.601 105 C 421.464 105, 417.641 106.608, 413.106 108.573 C 403.626 112.682, 402.211 112.528, 393.988 106.491 C 391.326 104.537, 385.742 101.364, 381.578 99.441 C 377.318 97.472, 373.296 94.855, 372.378 93.454 C 371.480 92.084, 370.283 87.147, 369.717 82.482 L 368.689 74 358.020 74 L 347.351 74 346.317 83.015 M 346.863 120.509 C 328.193 126.492, 318.135 147.905, 325.162 166.712 C 328.185 174.802, 337.284 183.845, 345.500 186.924 C 353.736 190.011, 365.101 189.582, 373 185.885 C 379.636 182.780, 386.228 176.383, 389.837 169.546 C 392.232 165.008, 392.500 163.442, 392.500 154 C 392.500 143.950, 392.354 143.231, 389.092 137.215 C 382.821 125.650, 373.200 119.832, 359.500 119.321 C 354.389 119.131, 349.825 119.559, 346.863 120.509 M 354.500 139.733 C 342.452 142.749, 340.166 160.897, 351.119 166.562 C 356.085 169.130, 364.221 168.121, 368.038 164.464 C 376.090 156.750, 372.675 143.062, 361.931 139.980 C 358.333 138.948, 357.716 138.928, 354.500 139.733 M 44.923 248.923 C 42.631 251.216, 42 252.742, 42 256 C 42 265.060, 52.221 269.348, 59.121 263.184 C 66.062 256.981, 61.452 246, 51.907 246 C 48.752 246, 47.194 246.652, 44.923 248.923 M 130.325 258.423 C 125.614 260.526, 124.219 263.488, 122.986 274 C 122.374 279.225, 121.339 283.848, 120.686 284.274 C 120.034 284.699, 116.509 286.824, 112.854 288.994 L 106.208 292.941 96.890 288.899 C 86.302 284.307, 82.947 284.282, 78.843 288.762 C 77.464 290.268, 71.760 299.473, 66.168 309.217 C 52.781 332.544, 52.779 332.936, 66.019 343.014 L 74 349.090 74 357.950 L 74 366.811 66.995 372.003 C 63.143 374.859, 59.093 378.338, 57.995 379.733 C 54.329 384.394, 55.275 387.411, 66.570 407.087 C 72.384 417.214, 78.065 426.489, 79.196 427.698 C 82.878 431.636, 86.037 431.521, 96.453 427.071 C 101.694 424.832, 106.202 423, 106.471 423 C 106.741 423, 109.332 424.512, 112.231 426.361 C 115.129 428.209, 118.462 430.024, 119.639 430.393 C 121.379 430.939, 121.901 432.131, 122.440 436.782 C 124.225 452.195, 124.287 452.440, 127.083 455.237 L 129.846 458 153.907 458 L 177.968 458 181.038 455.250 C 183.896 452.690, 184.184 451.789, 185.225 442.183 L 186.342 431.866 190.399 429.797 C 192.630 428.658, 196.143 426.610, 198.206 425.245 L 201.956 422.763 211.512 426.954 C 221.744 431.441, 224.865 431.637, 228.732 428.035 C 232.135 424.865, 252.124 389.331, 252.211 386.300 C 252.359 381.085, 250.907 379.066, 242.699 373.079 L 234.518 367.110 234.452 358.007 L 234.385 348.903 242.129 343.201 C 250.464 337.064, 252.333 334.658, 252.333 330.064 C 252.333 325.718, 231.420 289.366, 227.500 286.897 C 223.349 284.282, 222.024 284.453, 211.484 288.956 L 202.225 292.912 194.272 288.413 L 186.319 283.914 185.218 273.785 C 184.209 264.506, 183.858 263.396, 181.041 260.578 L 177.965 257.500 155.733 257.253 C 138.292 257.060, 132.816 257.312, 130.325 258.423 M 142.373 286.989 C 141.120 297.779, 140.313 298.871, 130.098 303.590 C 125.993 305.487, 120.354 308.771, 117.567 310.888 C 110.379 316.349, 108.863 316.478, 99.067 312.469 C 94.435 310.573, 90.550 309.129, 90.434 309.261 C 89.833 309.939, 80 326.931, 80 327.290 C 80 327.521, 82.588 329.526, 85.750 331.746 C 95.682 338.717, 95.261 337.616, 95.294 356.725 C 95.309 365.951, 94.996 374.509, 94.597 375.741 C 94.197 376.974, 91.087 380.084, 87.685 382.653 C 84.283 385.222, 81.143 387.631, 80.706 388.006 C 80.124 388.506, 88.601 404.854, 90.423 406.747 C 90.554 406.883, 94.380 405.383, 98.926 403.413 C 108.658 399.195, 109.782 399.317, 118.477 405.521 C 121.874 407.945, 127.544 411.233, 131.077 412.827 C 140.112 416.905, 141.222 418.464, 142.460 428.811 L 143.500 437.500 154.250 437.784 C 163.995 438.041, 165.003 437.901, 165.033 436.284 C 165.137 430.606, 167.040 420.588, 168.412 418.494 C 169.297 417.144, 173.436 414.473, 177.693 412.506 C 181.918 410.554, 187.720 407.186, 190.586 405.023 C 198.651 398.934, 199.013 398.940, 214.183 405.402 L 217.866 406.971 222.933 398.117 C 225.720 393.247, 228 389.021, 228 388.726 C 228 388.431, 224.872 385.870, 221.049 383.036 C 217.226 380.202, 213.806 376.963, 213.448 375.837 C 213.091 374.712, 213.085 369.451, 213.435 364.146 C 213.784 358.841, 213.689 352.247, 213.223 349.494 C 211.842 341.334, 213.119 338.612, 221.040 332.832 C 224.868 330.039, 228 327.527, 228 327.250 C 228 326.539, 220.389 312.874, 218.778 310.693 C 217.509 308.974, 217.098 309.040, 210.471 312.032 C 200.507 316.531, 198.605 316.359, 189.618 310.147 C 185.446 307.262, 179.662 303.947, 176.766 302.779 C 167.872 299.193, 166.725 297.357, 165.498 284.750 L 164.841 278 154.129 278 L 143.417 278 142.373 286.989 M 19.544 284.144 C 14.710 287.946, 6.396 309.136, 2.326 328.024 C 0.885 334.713, 0.500 340.927, 0.500 357.500 C 0.500 375.883, 0.792 379.805, 2.844 388.975 C 9.457 418.522, 21.818 442.567, 41.015 463.230 C 64.551 488.563, 93.740 504.237, 128.417 510.165 C 143.987 512.826, 170.003 512.325, 185.159 509.070 C 230.461 499.343, 268.759 471.063, 290.006 431.648 C 294.223 423.825, 294.608 423.410, 296.006 425.165 C 298.023 427.698, 302.787 428.861, 306.788 427.797 C 310.367 426.846, 313.990 422.062, 313.996 418.280 C 313.998 417.059, 311.489 410.309, 308.420 403.280 C 302.279 389.215, 298.926 385, 293.882 385 C 290.209 385, 266.463 395.271, 263.265 398.243 C 256.392 404.631, 262.946 417.461, 272.143 415.621 L 275.009 415.048 272.361 420.274 C 265.359 434.093, 251.436 451.365, 239.426 461.133 C 214.475 481.425, 187.100 490.986, 153.926 490.996 C 137.703 491.001, 125.295 489.091, 111.144 484.410 C 89.971 477.407, 74.122 467.252, 57.902 450.298 C 39.170 430.719, 28.554 410.546, 22.848 383.688 C 19.798 369.333, 19.798 346.667, 22.848 332.312 C 25.197 321.254, 29.826 307.268, 33.613 299.783 C 36.998 293.094, 36.748 289.548, 32.600 285.400 C 28.497 281.297, 23.745 280.840, 19.544 284.144 M 148.800 323.176 C 141.138 324.170, 134.451 327.741, 128.659 333.933 C 121.347 341.751, 119.501 346.600, 119.501 358 C 119.501 365.649, 119.926 368.419, 121.680 372.217 C 124.747 378.858, 132.251 386.489, 138.874 389.700 C 143.766 392.072, 145.739 392.433, 154 392.464 C 161.814 392.494, 164.373 392.097, 168.420 390.231 C 175.821 386.818, 181.279 381.830, 184.759 375.300 C 198.834 348.894, 178.439 319.331, 148.800 323.176 M 150.209 343.986 C 138.435 346.769, 136.172 364.900, 146.906 370.451 C 157.476 375.917, 170.377 367.113, 168.457 355.744 C 167.640 350.910, 161.604 344, 158.199 344 C 157.080 344, 155.564 343.822, 154.832 343.604 C 154.099 343.387, 152.019 343.559, 150.209 343.986" stroke="none" fill="#040404" fill-rule="evenodd"/></svg>